<svg xmlns="http://www.w3.org/2000/svg" viewBox="0 0 1024 1024">
  <defs>
    <linearGradient id="bg" x1="0" y1="0" x2="1" y2="1">
      <stop offset="0" stop-color="#e6edf6"/>
      <stop offset="0.48" stop-color="#fafcfc"/>
      <stop offset="1" stop-color="#ddefe5"/>
    </linearGradient>
    <linearGradient id="ink" x1="0" y1="0" x2="1" y2="0">
      <stop offset="0" stop-color="#3b82f6"/>
      <stop offset="1" stop-color="#4f9f7a"/>
    </linearGradient>
    <filter id="softShadow" x="-20%" y="-20%" width="140%" height="150%">
      <feDropShadow dx="0" dy="24" stdDeviation="22" flood-color="#0f172a" flood-opacity="0.16"/>
    </filter>
  </defs>
  <rect width="1024" height="1024" rx="226" fill="url(#bg)"/>
  <ellipse cx="300" cy="232" rx="190" ry="156" fill="#fff" opacity="0.30"/>
  <ellipse cx="800" cy="860" rx="282" ry="210" fill="#202e3c" opacity="0.045"/>
  <rect x="164" y="166" width="696" height="136" rx="68" fill="#1f2937" opacity="0.92"/>
  <circle cx="269" cy="229" r="17" fill="#fff" opacity="0.72"/>
  <circle cx="337" cy="229" r="17" fill="#fff" opacity="0.40"/>
  <rect x="246" y="386" width="500" height="440" rx="108" fill="#fff" opacity="0.92" filter="url(#softShadow)"/>
  <rect x="249" y="389" width="494" height="434" rx="105" fill="none" stroke="#1f2937" stroke-opacity="0.10" stroke-width="6"/>
  <g transform="translate(318 474) rotate(-7)" fill="#1f2937" opacity="0.22">
    <rect x="30" y="0" width="24" height="154" rx="12"/>
    <rect x="92" y="0" width="24" height="154" rx="12"/>
    <rect x="0" y="46" width="146" height="24" rx="12"/>
    <rect x="0" y="96" width="146" height="24" rx="12"/>
  </g>
  <rect x="414" y="540" width="220" height="24" rx="12" fill="#1f2937" opacity="0.19"/>
  <rect x="382" y="636" width="206" height="24" rx="12" fill="#1f2937" opacity="0.15"/>
  <rect x="382" y="698" width="250" height="28" rx="14" fill="url(#ink)"/>
  <g transform="translate(704 612) rotate(-32)">
    <polygon points="-280,0 -210,-31 -210,31" fill="#fff8ec"/>
    <polygon points="-280,0 -250,-13 -250,13" fill="#1f2937"/>
    <rect x="-210" y="-34" width="420" height="68" rx="34" fill="#263241"/>
    <rect x="54" y="-34" width="156" height="68" rx="34" fill="#64748b"/>
  </g>
  <rect x="5" y="5" width="1014" height="1014" rx="221" fill="none" stroke="#fff" stroke-opacity="0.42" stroke-width="10"/>
</svg>